<svg width="20" height="20" viewBox="0 0 32 32" fill="none" xmlns="http://www.w3.org/2000/svg">
<path fill-rule="evenodd" clip-rule="evenodd" d="M15.9983 0.171875C7.16326 0.171875 0 7.33514 0 16.1729C0 23.2416 4.58398 29.2384 10.9423 31.3549C11.7426 31.5014 12.0342 31.0074 12.0342 30.5826C12.0342 30.2038 12.0209 29.1971 12.0129 27.8622C7.56207 28.8289 6.62331 25.717 6.62331 25.717C5.8956 23.8694 4.84631 23.3774 4.84631 23.3774C3.39355 22.3841 4.95616 22.404 4.95616 22.404C6.56205 22.5179 7.40695 24.0532 7.40695 24.0532C8.83441 26.498 11.152 25.7916 12.0635 25.3828C12.2093 24.3488 12.6214 23.6437 13.0795 23.2436C9.52683 22.8401 5.79107 21.4666 5.79107 15.336C5.79107 13.5896 6.41491 12.1608 7.43824 11.0423C7.27379 10.6375 6.72451 9.01094 7.5947 6.80783C7.5947 6.80783 8.93827 6.37773 11.9949 8.44834C13.2712 8.09348 14.6401 7.91571 16.0003 7.90972C17.3592 7.91571 18.7281 8.09348 20.0064 8.44834C23.0611 6.37773 24.402 6.80783 24.402 6.80783C25.2748 9.01094 24.7255 10.6375 24.5611 11.0423C25.5864 12.1608 26.2063 13.5896 26.2063 15.336C26.2063 21.4826 22.4645 22.8348 18.8999 23.2309C19.4751 23.725 19.9864 24.701 19.9864 26.1944C19.9864 28.3329 19.9671 30.0586 19.9671 30.5826C19.9671 31.0114 20.2547 31.5094 21.067 31.353C27.42 29.2324 32 23.2396 32 16.1729C32 7.33514 24.8361 0.171875 15.9983 0.171875" fill="#010101"/>
</svg>
