<svg width="486" height="486" viewBox="0 0 486 486" fill="none" xmlns="http://www.w3.org/2000/svg">
<path d="M242.606 0C108.628 0 0 108.628 0 242.606C0 376.582 108.628 485.212 242.606 485.212C376.584 485.212 485.21 376.581 485.21 242.606C485.211 108.628 376.584 0 242.606 0ZM370.718 353.989L351.293 373.418C347.825 376.881 337.67 379.042 337.344 379.042C275.892 379.578 216.723 355.44 173.249 311.962C129.656 268.344 105.49 208.964 106.139 147.305C106.139 147.277 108.363 137.413 111.828 133.981L131.252 114.554C138.36 107.413 152.014 104.186 161.579 107.386L165.665 108.749C175.202 111.946 185.215 122.491 187.85 132.206L197.621 168.068C200.256 177.811 196.702 191.672 189.596 198.78L176.626 211.752C189.36 258.894 226.349 295.89 273.499 308.655L286.464 295.68C293.605 288.539 307.461 284.988 317.183 287.619L353.04 297.425C362.757 300.095 373.3 310.045 376.496 319.579L377.859 323.724C381.027 333.262 377.825 346.913 370.718 353.989Z" fill="#4CAF50"/>
</svg>
