<svg width="20" height="20" viewBox="0 0 32 32" fill="none" xmlns="http://www.w3.org/2000/svg">
<circle cx="16" cy="16" r="16" fill="#37AEE2"/>
<path d="M12.66 23.2535C12.0978 23.2535 12.1489 23.0491 11.9956 22.538L10.3603 17.172L22.881 9.81287" fill="#C8DAEA"/>
<path d="M12.66 23.2535C13.0177 23.2535 13.2222 23.0491 13.4777 22.8446L15.7774 20.6471L12.9155 18.9095" fill="#A9C9DD"/>
<path d="M12.9155 18.9096L19.8147 23.969C20.5302 24.4289 21.1434 24.1734 21.3479 23.2535L24.1586 10.0684C24.4142 8.94411 23.6987 8.43306 22.9321 8.79079L6.52739 15.1278C5.45419 15.5367 5.45419 16.201 6.32297 16.4565L10.5647 17.7853L20.2746 11.6016C20.7346 11.346 21.1434 11.4483 20.8368 11.806" fill="#F6FBFE"/>
</svg>
